<svg width="12" height="11" viewBox="0 0 12 11" fill="none" xmlns="http://www.w3.org/2000/svg">
<path d="M2.14617 10.0334C1.99439 10.0334 1.86711 9.98203 1.76434 9.87937C1.66167 9.77659 1.61034 9.64931 1.61034 9.49753V6.43337H1.18717C1.01972 6.43337 0.877447 6.36198 0.760335 6.2192C0.643224 6.07653 0.612447 5.92142 0.668002 5.75387L1.468 2.75903C1.49489 2.64459 1.55778 2.55059 1.65667 2.47703C1.75556 2.40348 1.86789 2.3667 1.99367 2.3667H10.3397C10.4656 2.3667 10.5779 2.40348 10.6767 2.47703C10.7756 2.55059 10.8384 2.64459 10.8653 2.75903L11.6653 5.75387C11.7209 5.92142 11.6901 6.07653 11.573 6.2192C11.456 6.36198 11.3137 6.43337 11.1462 6.43337H10.723L10.8002 9.5707C10.8002 9.69337 10.759 9.79626 10.6767 9.87937C10.5942 9.96237 10.4921 10.0039 10.3702 10.0039C10.2484 10.0039 10.1452 9.96237 10.0605 9.87937C9.97595 9.79626 9.93367 9.69337 9.93367 9.5707L9.8565 6.43337H6.877V9.49753C6.877 9.64931 6.82561 9.77659 6.72284 9.87937C6.62017 9.98203 6.49289 10.0334 6.341 10.0334H2.14617ZM2.477 9.1667H6.01034V6.43337H2.477V9.1667ZM2.018 1.23337C1.89522 1.23337 1.79228 1.19214 1.70917 1.1097C1.62617 1.02726 1.58467 0.925144 1.58467 0.803366C1.58467 0.681477 1.62617 0.578255 1.70917 0.493699C1.79228 0.409032 1.89522 0.366699 2.018 0.366699H10.3153C10.4381 0.366699 10.5411 0.407921 10.6242 0.490366C10.7072 0.57281 10.7487 0.674921 10.7487 0.796699C10.7487 0.918588 10.7072 1.02181 10.6242 1.10637C10.5411 1.19103 10.4381 1.23337 10.3153 1.23337H2.018ZM1.6205 5.5667H10.7128L10.1038 3.23337H2.2295L1.6205 5.5667Z" fill="#5D5D77"/>
</svg>
