<svg width="11" height="11" viewBox="0 0 11 11" fill="none" xmlns="http://www.w3.org/2000/svg">
<path d="M2.24999 10.6457C1.87155 10.6457 1.55124 10.5146 1.28908 10.2524C1.02691 9.99025 0.895828 9.66995 0.895828 9.2915V8.70813C0.895828 8.43892 0.991703 8.20844 1.18345 8.01669C1.3752 7.82494 1.60573 7.72907 1.87503 7.72907H2.52083V1.3332C2.52083 1.0639 2.6167 0.833379 2.80845 0.641629C3.0002 0.449879 3.23073 0.354004 3.50003 0.354004H9.12496C9.39426 0.354004 9.62479 0.449879 9.81654 0.641629C10.0083 0.833379 10.1042 1.0639 10.1042 1.3332V9.2915C10.1042 9.66995 9.97308 9.99025 9.71091 10.2524C9.44875 10.5146 9.12844 10.6457 8.75 10.6457H2.24999ZM8.75 9.83317C8.90347 9.83317 9.03211 9.78126 9.13593 9.67744C9.23975 9.57362 9.29166 9.44498 9.29166 9.2915V1.3332C9.29166 1.28454 9.27604 1.24459 9.24481 1.21336C9.21357 1.18212 9.17362 1.1665 9.12496 1.1665H3.50003C3.45137 1.1665 3.41142 1.18212 3.38018 1.21336C3.34895 1.24459 3.33333 1.28454 3.33333 1.3332V7.72907H7.22913C7.49843 7.72907 7.72895 7.82494 7.9207 8.01669C8.11245 8.20844 8.20833 8.43892 8.20833 8.70813V9.2915C8.20833 9.44498 8.26024 9.57362 8.36406 9.67744C8.46788 9.78126 8.59652 9.83317 8.75 9.83317ZM4.38538 3.70814C4.27028 3.70814 4.17381 3.66918 4.096 3.59127C4.01809 3.51337 3.97913 3.41686 3.97913 3.30175C3.97913 3.18656 4.01809 3.0901 4.096 3.01237C4.17381 2.93455 4.27028 2.89564 4.38538 2.89564H8.23961C8.35471 2.89564 8.45118 2.93459 8.529 3.0125C8.6069 3.09041 8.64586 3.18697 8.64586 3.30216C8.64586 3.41726 8.6069 3.51373 8.529 3.59155C8.45118 3.66928 8.35471 3.70814 8.23961 3.70814H4.38538ZM4.38538 5.27071C4.27028 5.27071 4.17381 5.23176 4.096 5.15385C4.01809 5.07594 3.97913 4.97939 3.97913 4.86419C3.97913 4.74909 4.01809 4.65263 4.096 4.57481C4.17381 4.49708 4.27028 4.45821 4.38538 4.45821H8.23961C8.35471 4.45821 8.45118 4.49717 8.529 4.57508C8.6069 4.6529 8.64586 4.7494 8.64586 4.8646C8.64586 4.97979 8.6069 5.07625 8.529 5.15398C8.45118 5.2318 8.35471 5.27071 8.23961 5.27071H4.38538ZM2.24999 9.83317H7.39583V8.70813C7.39583 8.65956 7.38021 8.61966 7.34897 8.58842C7.31774 8.55709 7.27779 8.54143 7.22913 8.54143H1.87503C1.82637 8.54143 1.78642 8.55709 1.75518 8.58842C1.72395 8.61966 1.70833 8.65956 1.70833 8.70813V9.2915C1.70833 9.44498 1.76024 9.57362 1.86406 9.67744C1.96788 9.78126 2.09652 9.83317 2.24999 9.83317ZM2.24999 9.83317H1.70833H7.39583H2.24999Z" fill="#18173C"/>
</svg>
