<svg width="14" height="15" viewBox="0 0 14 15" fill="none" xmlns="http://www.w3.org/2000/svg">
<path d="M2 12.8332H4.78854V8.63447C4.78854 8.42114 4.86069 8.24225 5.005 8.09781C5.14944 7.9535 5.32833 7.88135 5.54167 7.88135H8.45833C8.67167 7.88135 8.85056 7.9535 8.995 8.09781C9.13931 8.24225 9.21146 8.42114 9.21146 8.63447V12.8332H12V5.46135C12 5.41871 11.9906 5.38003 11.9719 5.34531C11.9533 5.31058 11.9279 5.27982 11.8958 5.25302L7.15229 1.68739C7.10951 1.65003 7.05875 1.63135 7 1.63135C6.94125 1.63135 6.89049 1.65003 6.84771 1.68739L2.10417 5.25302C2.07208 5.27982 2.04674 5.31058 2.02813 5.34531C2.00938 5.38003 2 5.41871 2 5.46135V12.8332ZM0.75 12.8332V5.46135C0.75 5.22288 0.803333 4.99697 0.91 4.78364C1.01681 4.57017 1.16431 4.3944 1.3525 4.25635L6.09625 0.682598C6.35944 0.481765 6.66028 0.381348 6.99875 0.381348C7.33722 0.381348 7.63889 0.481765 7.90375 0.682598L12.6475 4.25635C12.8357 4.3944 12.9832 4.57017 13.09 4.78364C13.1967 4.99697 13.25 5.22288 13.25 5.46135V12.8332C13.25 13.1741 13.1269 13.4676 12.8806 13.7138C12.6344 13.9601 12.3408 14.0832 12 14.0832H8.71479C8.50132 14.0832 8.32243 14.011 8.17812 13.8666C8.03368 13.7223 7.96146 13.5434 7.96146 13.3299V9.13135H6.03854V13.3299C6.03854 13.5434 5.96632 13.7223 5.82188 13.8666C5.67757 14.011 5.49868 14.0832 5.28521 14.0832H2C1.65917 14.0832 1.36562 13.9601 1.11937 13.7138C0.873125 13.4676 0.75 13.1741 0.75 12.8332Z" fill="#BFBED1"/>
</svg>
