<svg width="10" height="10" viewBox="0 0 10 10" fill="none" xmlns="http://www.w3.org/2000/svg">
<path d="M5 4.79484C4.35833 4.79484 3.80906 4.5664 3.35217 4.10951C2.89517 3.65251 2.66667 3.10317 2.66667 2.46151C2.66667 1.81984 2.89517 1.27056 3.35217 0.813674C3.80906 0.356674 4.35833 0.128174 5 0.128174C5.64167 0.128174 6.19094 0.356674 6.64783 0.813674C7.10483 1.27056 7.33333 1.81984 7.33333 2.46151C7.33333 3.10317 7.10483 3.65251 6.64783 4.10951C6.19094 4.5664 5.64167 4.79484 5 4.79484ZM0 9.87184V8.38967C0 8.06323 0.0886668 7.7609 0.266 7.48267C0.443333 7.20445 0.680333 6.99056 0.977 6.84101C1.63589 6.51801 2.30061 6.27573 2.97117 6.11417C3.64172 5.95262 4.318 5.87184 5 5.87184C5.682 5.87184 6.35828 5.95262 7.02883 6.11417C7.69939 6.27573 8.36411 6.51801 9.023 6.84101C9.31967 6.99056 9.55667 7.20445 9.734 7.48267C9.91133 7.7609 10 8.06323 10 8.38967V9.87184H0ZM1 8.87184H9V8.38967C9 8.25467 8.96089 8.12967 8.88267 8.01467C8.80445 7.89979 8.69828 7.80601 8.56417 7.73334C7.98972 7.45045 7.40406 7.23612 6.80717 7.09034C6.21017 6.94467 5.60778 6.87184 5 6.87184C4.39222 6.87184 3.78983 6.94467 3.19283 7.09034C2.59594 7.23612 2.01028 7.45045 1.43583 7.73334C1.30172 7.80601 1.19556 7.89979 1.11733 8.01467C1.03911 8.12967 1 8.25467 1 8.38967V8.87184ZM5 3.79484C5.36667 3.79484 5.68056 3.66428 5.94167 3.40317C6.20278 3.14206 6.33333 2.82817 6.33333 2.46151C6.33333 2.09484 6.20278 1.78095 5.94167 1.51984C5.68056 1.25873 5.36667 1.12817 5 1.12817C4.63333 1.12817 4.31944 1.25873 4.05833 1.51984C3.79722 1.78095 3.66667 2.09484 3.66667 2.46151C3.66667 2.82817 3.79722 3.14206 4.05833 3.40317C4.31944 3.66428 4.63333 3.79484 5 3.79484Z" fill="#5D5D77"/>
</svg>
