<svg width="15" height="16" viewBox="0 0 15 16" fill="none" xmlns="http://www.w3.org/2000/svg">
<path fill-rule="evenodd" clip-rule="evenodd" d="M13.934 4.89333L13.4747 4.10667C13.0862 3.44103 12.2251 3.2114 11.5498 3.59333C11.2283 3.78024 10.8447 3.83327 10.4836 3.74073C10.1225 3.64818 9.81352 3.41766 9.6248 3.1C9.50339 2.89809 9.43815 2.66812 9.43568 2.43333C9.44663 2.05692 9.30275 1.69215 9.03682 1.42214C8.77089 1.15212 8.40556 0.999845 8.02404 1H7.09871C6.72494 1 6.36657 1.14701 6.10291 1.4085C5.83925 1.66999 5.69203 2.02441 5.69382 2.39333C5.68275 3.15503 5.05397 3.76675 4.28219 3.76667C4.04432 3.76423 3.81133 3.69984 3.60676 3.58C2.93146 3.19806 2.07036 3.42769 1.6818 4.09333L1.18874 4.89333C0.800653 5.55814 1.03013 6.40753 1.70206 6.79333C2.13883 7.04223 2.40789 7.50221 2.40789 8C2.40789 8.49779 2.13883 8.95777 1.70206 9.20667C1.03099 9.58986 0.801256 10.4372 1.18874 11.1L1.65478 11.8933C1.83684 12.2176 2.1423 12.4568 2.50357 12.5582C2.86484 12.6595 3.25213 12.6146 3.57975 12.4333C3.90181 12.2478 4.2856 12.197 4.64581 12.2922C5.00601 12.3873 5.31279 12.6205 5.49795 12.94C5.61936 13.1419 5.6846 13.3719 5.68707 13.6067C5.68707 14.3762 6.31908 15 7.09871 15H8.02404C8.80104 15 9.43196 14.3802 9.43568 13.6133C9.43387 13.2433 9.58202 12.8878 9.84714 12.6261C10.1123 12.3644 10.4724 12.2182 10.8473 12.22C11.0846 12.2263 11.3166 12.2904 11.5227 12.4067C12.1963 12.7897 13.0568 12.5632 13.4477 11.9L13.934 11.1C14.1222 10.7811 14.1739 10.4013 14.0776 10.0447C13.9812 9.68804 13.7448 9.38405 13.4207 9.2C13.0966 9.01595 12.8602 8.71196 12.7638 8.35534C12.6675 7.99872 12.7191 7.61891 12.9074 7.3C13.0298 7.08906 13.207 6.91416 13.4207 6.79333C14.0886 6.40774 14.3175 5.56331 13.934 4.9V4.89333Z" stroke="#BFBED1" stroke-width="1.36719" stroke-linecap="round" stroke-linejoin="round"/>
<path d="M7.56437 9.91983C8.63869 9.91983 9.5096 9.06022 9.5096 7.99983C9.5096 6.93945 8.63869 6.07983 7.56437 6.07983C6.49006 6.07983 5.61915 6.93945 5.61915 7.99983C5.61915 9.06022 6.49006 9.91983 7.56437 9.91983Z" stroke="#BFBED1" stroke-width="1.36719" stroke-linecap="round" stroke-linejoin="round"/>
</svg>
