<svg width="70" height="70" viewBox="0 0 70 70" fill="none" xmlns="http://www.w3.org/2000/svg">
<path d="M38.9005 6.00698L39.1036 6.02944L39.7452 6.13979C41.0248 6.37547 42.2799 6.69893 43.5118 7.10854L44.1261 7.32046L44.1417 7.32632C49.1177 9.15474 53.289 12.2321 56.4425 16.0812C57.8993 15.0719 59.4202 14.1082 61.0069 13.2042C61.9665 12.6575 63.1885 12.9919 63.7354 13.9513C64.2822 14.911 63.947 16.132 62.9874 16.6789C61.5196 17.5151 60.1106 18.407 58.7589 19.3419C63.1303 26.4804 64.4379 35.4559 61.6456 43.9904L61.4024 44.7013C56.0205 59.8576 39.5509 67.75 24.5909 62.2531V62.2521C21.1935 61.0045 18.1665 59.1667 15.5841 56.9044L15.1124 56.4923C14.1804 55.6592 13.3242 54.7695 12.544 53.8253L12.1602 53.3488L12.0421 53.1818C11.5003 52.3251 11.6845 51.1803 12.4991 50.5412C13.3138 49.9021 14.4699 49.9956 15.1729 50.7257L15.3067 50.88L15.627 51.2775C16.2775 52.0647 16.994 52.8097 17.7784 53.5109L18.1759 53.8576L18.1993 53.8781L18.6221 54.2404C20.6137 55.9114 22.8949 57.2929 25.4249 58.2902L25.9708 58.4982L26.5733 58.7111C39.2355 62.9979 53.0529 56.2637 57.6339 43.3624L57.8438 42.7462C60.2237 35.4716 59.1603 27.8468 55.5323 21.7365C45.9839 29.3215 39.7218 38.8577 36.3985 45.2091C36.0614 45.8534 35.4008 46.264 34.6739 46.2814C33.9471 46.2987 33.2679 45.9204 32.9005 45.2931C30.3007 40.8542 27.047 36.8743 23.1192 33.3624L22.3243 32.6662L22.1759 32.5246C21.4778 31.7899 21.4352 30.6314 22.1095 29.8458C22.7839 29.0603 23.9358 28.9271 24.7677 29.506L24.9298 29.631L25.7862 30.381C29.143 33.3824 32.05 36.7101 34.5128 40.3537C38.2778 33.8797 44.4164 25.4123 53.2208 18.4669C50.5166 15.2202 46.9702 12.6276 42.7618 11.0812H42.7608C41.5383 10.6446 40.2932 10.3078 39.0206 10.0734L38.4708 9.97866L38.2706 9.93667C37.2911 9.67589 36.6488 8.71005 36.8126 7.68764C36.9765 6.66527 37.8885 5.94855 38.9005 6.00698ZM7.70808 37.3458C8.73254 37.1948 9.69011 37.8494 9.93855 38.8322L9.97859 39.0324L10.085 39.6828C10.3166 40.9798 10.6625 42.2528 11.0919 43.4796L11.3136 44.089L11.3761 44.2843C11.6356 45.2642 11.1156 46.3012 10.1466 46.6662C9.17767 47.0307 8.10365 46.5941 7.65242 45.6867L7.57039 45.4992L7.31746 44.8019C6.82514 43.3954 6.41965 41.9149 6.14656 40.3849L6.02156 39.6164L6.00203 39.4123C5.95642 38.3999 6.68399 37.4971 7.70808 37.3458ZM7.80965 23.8917C8.22763 22.8696 9.39577 22.3794 10.418 22.797C11.4404 23.215 11.9306 24.3831 11.5128 25.4054C10.8114 27.1211 10.3135 28.9541 10.0235 30.8507L9.9825 31.0519C9.72872 32.0332 8.76776 32.682 7.74422 32.5255C6.65277 32.3582 5.90349 31.3379 6.07039 30.2462L6.20711 29.4279C6.55314 27.5241 7.08514 25.664 7.80965 23.8917ZM15.5499 18.6447C14.8559 19.5039 13.5967 19.6384 12.7374 18.9445C11.8783 18.2505 11.7448 16.9912 12.4386 16.132L15.5499 18.6447ZM16.4386 12.1339C17.2767 11.564 18.427 11.7104 19.0929 12.5031C19.803 13.3491 19.6928 14.6113 18.8468 15.3214L18.3946 15.7091C17.3506 16.6242 16.3859 17.6095 15.5499 18.6447L13.9942 17.3878L12.4386 16.132C13.5789 14.72 14.8899 13.42 16.2755 12.257L16.4386 12.1339ZM29.9884 6.02358C31.0798 5.85548 32.1011 6.60408 32.2696 7.69546C32.4379 8.78702 31.6893 9.8083 30.5977 9.97671C29.0895 10.2093 27.6312 10.5834 26.255 11.0949L25.67 11.3224C24.6472 11.7386 23.4802 11.2474 23.0636 10.2248C22.6472 9.20189 23.1394 8.03395 24.1622 7.61733L24.8614 7.34585C26.5052 6.7349 28.2275 6.29512 29.9884 6.02358Z" fill="#32816B"/>
</svg>
