<svg width="18" height="14" viewBox="0 0 18 14" fill="none" xmlns="http://www.w3.org/2000/svg">
<path d="M13.1185 8.92307C12.5994 8.92307 12.1571 8.74036 11.7917 8.37495C11.4263 8.00953 11.2435 7.56724 11.2435 7.04807C11.2435 6.52877 11.4263 6.08641 11.7917 5.72099C12.1571 5.35571 12.5994 5.17307 13.1185 5.17307C13.6378 5.17307 14.0801 5.35571 14.4454 5.72099C14.8108 6.08641 14.9935 6.52877 14.9935 7.04807C14.9935 7.56724 14.8108 8.00953 14.4454 8.37495C14.0801 8.74036 13.6378 8.92307 13.1185 8.92307ZM9.16021 12.3364V12.1314C9.16021 11.8354 9.2359 11.5637 9.38729 11.3162C9.53868 11.0687 9.75361 10.8906 10.0321 10.782C10.5214 10.579 11.0254 10.4267 11.5442 10.3252C12.0628 10.2238 12.5876 10.1731 13.1185 10.1731C13.6495 10.1731 14.1744 10.2238 14.6931 10.3252C15.2117 10.4267 15.7158 10.579 16.2052 10.782C16.4837 10.8906 16.6985 11.0687 16.8498 11.3162C17.0012 11.5637 17.0769 11.8354 17.0769 12.1314V12.3364C17.0769 12.5499 17.0047 12.7288 16.8604 12.8731C16.716 13.0175 16.5371 13.0897 16.3237 13.0897H9.91354C9.70007 13.0897 9.52118 13.0175 9.37687 12.8731C9.23243 12.7288 9.16021 12.5499 9.16021 12.3364ZM7.17313 6.74349C6.37104 6.74349 5.68438 6.45793 5.11312 5.88682C4.54201 5.31557 4.25646 4.62891 4.25646 3.82682C4.25646 3.02474 4.54201 2.33814 5.11312 1.76703C5.68438 1.19578 6.37104 0.910156 7.17313 0.910156C7.97521 0.910156 8.66181 1.19578 9.23292 1.76703C9.80417 2.33814 10.0898 3.02474 10.0898 3.82682C10.0898 4.62891 9.80417 5.31557 9.23292 5.88682C8.66181 6.45793 7.97521 6.74349 7.17313 6.74349ZM0.923125 11.2362C0.923125 10.8201 1.03181 10.4377 1.24917 10.0889C1.46667 9.74002 1.765 9.47745 2.14417 9.3012C2.92944 8.90592 3.74451 8.60516 4.58938 8.39891C5.43424 8.19279 6.29549 8.08974 7.17313 8.08974C7.58437 8.08974 7.99569 8.11939 8.40708 8.1787C8.81833 8.238 9.22965 8.30981 9.64104 8.39411C9.46368 8.57411 9.28632 8.75418 9.10896 8.93432L8.57688 9.47432C8.34299 9.41821 8.10903 9.38175 7.875 9.36495C7.64097 9.34814 7.40701 9.33974 7.17313 9.33974C6.39424 9.33974 5.62875 9.42891 4.87667 9.60724C4.12444 9.78571 3.40486 10.0555 2.71792 10.4166C2.55764 10.502 2.42674 10.6139 2.32521 10.7522C2.22382 10.8907 2.17313 11.0523 2.17313 11.237V11.8397H7.17313V12.3237C7.17313 12.4856 7.20153 12.632 7.25833 12.7627C7.31514 12.8935 7.39465 13.0025 7.49688 13.0897H2.18917C1.83764 13.0897 1.53875 12.9666 1.2925 12.7204C1.04625 12.474 0.923125 12.1751 0.923125 11.8237V11.2362ZM7.17313 5.49349C7.63146 5.49349 8.02382 5.3303 8.35021 5.00391C8.6766 4.67752 8.83979 4.28516 8.83979 3.82682C8.83979 3.36849 8.6766 2.97613 8.35021 2.64974C8.02382 2.32335 7.63146 2.16016 7.17313 2.16016C6.71479 2.16016 6.32243 2.32335 5.99604 2.64974C5.66965 2.97613 5.50646 3.36849 5.50646 3.82682C5.50646 4.28516 5.66965 4.67752 5.99604 5.00391C6.32243 5.3303 6.71479 5.49349 7.17313 5.49349Z" fill="#BFBED1"/>
</svg>
