<svg width="16" height="16" viewBox="0 0 16 16" fill="none" xmlns="http://www.w3.org/2000/svg">
<path d="M3 15.9166C2.41778 15.9166 1.925 15.7149 1.52167 15.3116C1.11833 14.9083 0.916667 14.4155 0.916667 13.8333V12.9358C0.916667 12.5216 1.06417 12.167 1.35917 11.872C1.65417 11.577 2.00882 11.4295 2.42313 11.4295H3.41667V1.58971C3.41667 1.1754 3.56417 0.820752 3.85917 0.525752C4.15417 0.230752 4.50882 0.083252 4.92313 0.083252H13.5769C13.9912 0.083252 14.3458 0.230752 14.6408 0.525752C14.9358 0.820752 15.0833 1.1754 15.0833 1.58971V13.8333C15.0833 14.4155 14.8817 14.9083 14.4783 15.3116C14.075 15.7149 13.5822 15.9166 13 15.9166H3ZM13 14.6666C13.2361 14.6666 13.434 14.5867 13.5938 14.427C13.7535 14.2673 13.8333 14.0694 13.8333 13.8333V1.58971C13.8333 1.51485 13.8093 1.45339 13.7613 1.40534C13.7132 1.35728 13.6517 1.33325 13.5769 1.33325H4.92313C4.84826 1.33325 4.78681 1.35728 4.73875 1.40534C4.69069 1.45339 4.66667 1.51485 4.66667 1.58971V11.4295H10.6602C11.0745 11.4295 11.4292 11.577 11.7242 11.872C12.0192 12.167 12.1667 12.5216 12.1667 12.9358V13.8333C12.1667 14.0694 12.2465 14.2673 12.4063 14.427C12.566 14.5867 12.7639 14.6666 13 14.6666ZM6.28521 5.24346C6.10813 5.24346 5.95972 5.18353 5.84 5.06367C5.72014 4.94381 5.66021 4.79534 5.66021 4.61825C5.66021 4.44103 5.72014 4.29263 5.84 4.17304C5.95972 4.05332 6.10813 3.99346 6.28521 3.99346H12.2148C12.3919 3.99346 12.5403 4.05339 12.66 4.17325C12.7799 4.29311 12.8398 4.44166 12.8398 4.61888C12.8398 4.79596 12.7799 4.94436 12.66 5.06409C12.5403 5.18367 12.3919 5.24346 12.2148 5.24346H6.28521ZM6.28521 7.64742C6.10813 7.64742 5.95972 7.58749 5.84 7.46763C5.72014 7.34777 5.66021 7.19922 5.66021 7.022C5.66021 6.84492 5.72014 6.69652 5.84 6.57679C5.95972 6.45721 6.10813 6.39742 6.28521 6.39742H12.2148C12.3919 6.39742 12.5403 6.45735 12.66 6.57721C12.7799 6.69693 12.8398 6.84541 12.8398 7.02263C12.8398 7.19985 12.7799 7.34825 12.66 7.46783C12.5403 7.58756 12.3919 7.64742 12.2148 7.64742H6.28521ZM3 14.6666H10.9167V12.9358C10.9167 12.861 10.8926 12.7996 10.8446 12.7516C10.7965 12.7034 10.7351 12.6793 10.6602 12.6793H2.42313C2.34826 12.6793 2.28681 12.7034 2.23875 12.7516C2.19069 12.7996 2.16667 12.861 2.16667 12.9358V13.8333C2.16667 14.0694 2.24653 14.2673 2.40625 14.427C2.56597 14.5867 2.76389 14.6666 3 14.6666ZM3 14.6666H2.16667H10.9167H3Z" fill="#BFBED1"/>
</svg>
